# xmcd
#
# Track frame offsets:
#	150
#	15319
#	26982
#	41851
#	55850
#	69978
#	83561
#	97478
#	112533
#	127110
#	141524
#	155494
#	169359
#	183535
#	197759
#	211666
#
# Disc length: 3029 seconds
#
# Revision: 1
# Processed by: cddbd v1.5.2PL0 Copyright (c) Steve Scherf et al.
# Submitted via: audiograbber 1.83.01
#
DISCID=e30bd310
DTITLE=Doris Day - The Great Doris Day CD 2
DYEAR=2000
DGENRE=Blues
TTITLE0=It Could Happen To You
TTITLE1=I've Got The Sun In The Morning
TTITLE2=All Through The Day
TTITLE3=Are You Still In Love With Me
TTITLE4=Day By Day
TTITLE5=Till The End Of Time
TTITLE6=Aren't You Glad You're You
TTITLE7=We'll Be Together Again
TTITLE8=I'd Rather Be With You
TTITLE9=The Devil, Devil, Devil
TTITLE10=You Won't Be Satisfied (Until You Break My Heart)
TTITLE11=He'll Have To Cross The Atlantic To Get To The Pacific
TTITLE12=(Ah Yes) There'll Be Good Blues Tonight
TTITLE13=In The Moon Mist
TTITLE14=Come To Baby, Do!
TTITLE15=The Last Time I Saw You
EXTD=
EXTT0=
EXTT1=
EXTT2=
EXTT3=
EXTT4=
EXTT5=
EXTT6=
EXTT7=
EXTT8=
EXTT9=
EXTT10=
EXTT11=
EXTT12=
EXTT13=
EXTT14=
EXTT15=
PLAYORDER=
